<svg xmlns="http://www.w3.org/2000/svg" data-name="Layer 1" width="578" height="578" viewBox="0 0 578 578"
  xmlns:xlink="http://www.w3.org/1999/xlink">
  <path
    d="M889,450a287.86052,287.86052,0,0,1-68.09,186.34c-1.6,1.9-3.23,3.77-4.88995,5.63a290.58834,290.58834,0,0,1-67.49,55.99q-8.67,5.205-17.72,9.81c-.61.31-1.23.62-1.84.92-.73.37-1.47.73-2.21,1.09A286.15918,286.15918,0,0,1,679.24,728q-2.55.72-5.11,1.4a288.58782,288.58782,0,0,1-65.84,9.49c-1.16.03-2.3.05-3.4.07-.39.01-.77.02-1.15.02-1.25.01-2.49.02-3.74.02a289.27116,289.27116,0,0,1-69.54-8.43q-3.42-.84-6.81-1.77a285.47262,285.47262,0,0,1-34.97-12.03q-9-3.75-17.68-8.09c-1.31-.66-2.62-1.32-3.91-2-.55-.27-1.09-.56-1.63-.84a290.458,290.458,0,0,1-81.65-64.06c-1.6-1.79-3.17-3.61-4.72-5.44a289.02532,289.02532,0,0,1,49.59-419.1c1.64-1.21,3.29-2.41,4.96-3.58q.49494-.345.99-.69a286.75277,286.75277,0,0,1,97.1-43.85c1.98-.49,3.96-.95,5.96-1.38a291.79785,291.79785,0,0,1,114.68-2.01c1.99.37,3.98.75,5.96,1.16a287.28078,287.28078,0,0,1,97.1,39.43c.66.42,1.32.84,1.98,1.28,1.33.86,2.66,1.74,3.97,2.63A288.68578,288.68578,0,0,1,889,450Z"
    transform="translate(-311 -161)" fill="#f2f2f2" />
  <path
    d="M527,599.51l-92.37,8.2-.99.09V213.66q.49494-.345.99-.69a288.32258,288.32258,0,0,1,62.01-32.94l4.72,65.1.43,5.96,4.67,64.56L507.9,335.51l18.93,261.7Z"
    transform="translate(-311 -161)" fill="#ccc" />
  <path
    d="M755.43,206.32c.66.42,1.32.84,1.98,1.28V607.8l-1.98-.18-91.37-8.11.17-2.3L683.16,335.51l1.44-19.86,4.67-64.56.43-5.96,4.95-68.27A287.68677,287.68677,0,0,1,755.43,206.32Z"
    transform="translate(-311 -161)" fill="#ccc" />
  <path
    d="M755.43,206.32V613.26c0,7.81-5.38,14.16-12,14.16H446.63c-5.48,0-10.13-4.36-11.54-10.31a16.10772,16.10772,0,0,1-.46-3.85V212.97q-.495.34506-.99.69c-1.67,1.17-3.32,2.37-4.96,3.58V613.26a22.91864,22.91864,0,0,0,6.18,16,17.05993,17.05993,0,0,0,7.78,4.66,15.11793,15.11793,0,0,0,3.99.53h296.8a15.24855,15.24855,0,0,0,4-.53c7.98-2.15,13.95-10.59,13.95-20.66V210.23c-1.31-.89-2.64-1.77-3.97-2.63C756.75,207.16,756.09,206.74,755.43,206.32Z"
    transform="translate(-311 -161)" fill="#ccc" />
  <rect x="120.65518" y="84.13399" width="326.75223" height="5.95901" fill="#ccc" />
  <path d="M531.73,169.12c1.98-.49,3.96-.95,5.96-1.38V329.55h-5.96Z" transform="translate(-311 -161)" fill="#ccc" />
  <path d="M652.37,165.73c1.99.37,3.98.75,5.96,1.16V329.55h-5.96Z" transform="translate(-311 -161)" fill="#ccc" />
  <path
    d="M795.65,597.21H404.34a26.82,26.82,0,0,0,0,53.64H795.65a26.76039,26.76039,0,0,0,20.12-9.11,27.096,27.096,0,0,0,3.02-4.18,25.54045,25.54045,0,0,0,1.75-3.56,26.80329,26.80329,0,0,0-24.89-36.79Z"
    transform="translate(-311 -161)" fill="#ccc" />
  <rect x="122.64151" y="154.6489" width="324.76589" height="19.86336" fill="#ccc" />
  <path
    d="M282.04494,148.6899h5.959a10.92484,10.92484,0,0,1,10.92484,10.92484v0a0,0,0,0,1,0,0h-27.8087a0,0,0,0,1,0,0v0a10.92484,10.92484,0,0,1,10.92484-10.92484Z"
    fill="#ccc" />
  <path d="M820.91,636.34a289.004,289.004,0,0,1-28.12,28.95H407.21a289.004,289.004,0,0,1-28.12-28.95Z"
    transform="translate(-311 -161)" fill="#3f3d56" />
  <path
    d="M632.28,536.07H567.36a3.17486,3.17486,0,0,0-1.03.16,3.448,3.448,0,0,0-2.43,3.3V642.09h71.85V539.53A3.46328,3.46328,0,0,0,632.28,536.07Zm-24.57,50.6a7.53127,7.53127,0,0,1-1.56,4.6,7.665,7.665,0,0,1-13.78-4.6v-11.9a7.67033,7.67033,0,0,1,15.34,0Z"
    transform="translate(-311 -161)" fill="#2f2e41" />
  <path d="M563.68,638.81v9.89a1.93971,1.93971,0,0,0,1.93,1.94h68.43a1.94622,1.94622,0,0,0,1.93-1.94v-9.89Z"
    transform="translate(-311 -161)" fill="#3f3d56" />
  <path
    d="M739.78,376.02H462.28a9.01147,9.01147,0,0,0-9,8.99V572.27a9.0071,9.0071,0,0,0,9,9h277.5a9.00714,9.00714,0,0,0,9-9V385.01A9.01151,9.01151,0,0,0,739.78,376.02Z"
    transform="translate(-311 -161)" fill="#3f3d56" />
  <path
    d="M737.46,382.52H464.59a4.82046,4.82046,0,0,0-4.81,4.82V569.96a4.81829,4.81829,0,0,0,4.81,4.81H737.46a4.81833,4.81833,0,0,0,4.81-4.81V387.34A4.8205,4.8205,0,0,0,737.46,382.52Z"
    transform="translate(-311 -161)" fill="#1211" />
  <path
    d="M687.24,650.48l-2.52-11.97a2.99238,2.99238,0,0,0-1.86-2.17,2.89431,2.89431,0,0,0-1.06-.2H524.49a2.89455,2.89455,0,0,0-1.06.2,2.99262,2.99262,0,0,0-1.86,2.17l-2.52,11.97a2.98724,2.98724,0,0,0,2.92,3.6H684.31a2.94839,2.94839,0,0,0,2.32-1.11A2.98494,2.98494,0,0,0,687.24,650.48Z"
    transform="translate(-311 -161)" fill="#2f2e41" />
  <rect x="214.643" y="477.29577" width="5" height="3" rx="0.48819" fill="#3f3d56" />
  <rect x="224.643" y="477.29577" width="5" height="3" rx="0.48819" fill="#3f3d56" />
  <rect x="234.643" y="477.29577" width="5" height="3" rx="0.48819" fill="#3f3d56" />
  <rect x="244.643" y="477.29577" width="5" height="3" rx="0.48819" fill="#3f3d56" />
  <rect x="254.643" y="477.29577" width="5" height="3" rx="0.48819" fill="#3f3d56" />
  <rect x="264.643" y="477.29577" width="5" height="3" rx="0.48819" fill="#3f3d56" />
  <rect x="274.643" y="477.29577" width="5" height="3" rx="0.48819" fill="#3f3d56" />
  <rect x="284.643" y="477.29577" width="5" height="3" rx="0.48819" fill="#3f3d56" />
  <rect x="294.643" y="477.29577" width="5" height="3" rx="0.48819" fill="#3f3d56" />
  <rect x="304.643" y="477.29577" width="5" height="3" rx="0.48819" fill="#3f3d56" />
  <rect x="314.643" y="477.29577" width="5" height="3" rx="0.48819" fill="#3f3d56" />
  <rect x="324.643" y="477.29577" width="5" height="3" rx="0.48819" fill="#3f3d56" />
  <rect x="334.643" y="477.29577" width="5" height="3" rx="0.48819" fill="#3f3d56" />
  <rect x="344.643" y="477.29577" width="5" height="3" rx="0.48819" fill="#3f3d56" />
  <rect x="354.643" y="477.29577" width="5" height="3" rx="0.48819" fill="#3f3d56" />
  <rect x="364.643" y="477.29577" width="5" height="3" rx="0.48819" fill="#3f3d56" />
  <rect x="214.52484" y="482.29577" width="5" height="3" rx="0.48819" fill="#3f3d56" />
  <rect x="224.52484" y="482.29577" width="5" height="3" rx="0.48819" fill="#3f3d56" />
  <rect x="234.52484" y="482.29577" width="5" height="3" rx="0.48819" fill="#3f3d56" />
  <rect x="244.52484" y="482.29577" width="5" height="3" rx="0.48819" fill="#3f3d56" />
  <rect x="254.52484" y="482.29577" width="5" height="3" rx="0.48819" fill="#3f3d56" />
  <rect x="264.52484" y="482.29577" width="5" height="3" rx="0.48819" fill="#3f3d56" />
  <rect x="274.52484" y="482.29577" width="5" height="3" rx="0.48819" fill="#3f3d56" />
  <rect x="284.52484" y="482.29577" width="5" height="3" rx="0.48819" fill="#3f3d56" />
  <rect x="294.52484" y="482.29577" width="5" height="3" rx="0.48819" fill="#3f3d56" />
  <rect x="304.52484" y="482.29577" width="5" height="3" rx="0.48819" fill="#3f3d56" />
  <rect x="314.52484" y="482.29577" width="5" height="3" rx="0.48819" fill="#3f3d56" />
  <rect x="324.52484" y="482.29577" width="5" height="3" rx="0.48819" fill="#3f3d56" />
  <rect x="334.52484" y="482.29577" width="5" height="3" rx="0.48819" fill="#3f3d56" />
  <rect x="344.52484" y="482.29577" width="5" height="3" rx="0.48819" fill="#3f3d56" />
  <rect x="354.52484" y="482.29577" width="5" height="3" rx="0.48819" fill="#3f3d56" />
  <rect x="364.52484" y="482.29577" width="5" height="3" rx="0.48819" fill="#3f3d56" />
  <rect x="262.52484" y="488.29577" width="40" height="3" rx="0.48819" fill="#3f3d56" />
  <path d="M723.74813,407.67669H468.42477a1.01559,1.01559,0,0,1,0-2.03069H723.74813a1.01559,1.01559,0,0,1,0,2.03069Z"
    transform="translate(-311 -161)" fill="#3f3d56" />
  <ellipse cx="174.80496" cy="233.3788" rx="5.95043" ry="6.08304" fill="#f88f1f" />
  <ellipse cx="195.36098" cy="233.3788" rx="5.95043" ry="6.08304" fill="#f88f1f" />
  <ellipse cx="215.917" cy="233.3788" rx="5.95043" ry="6.08304" fill="#f88f1f" />
  <path d="M711.37,389.8h-14.6a1.1053,1.1053,0,0,0,0,2.21h14.6a1.10511,1.10511,0,0,0,0-2.21Z"
    transform="translate(-311 -161)" fill="#f88f1f" />
  <path d="M711.37,393.95h-14.6a1.10527,1.10527,0,0,0,0,2.21h14.6a1.10508,1.10508,0,0,0,0-2.21Z"
    transform="translate(-311 -161)" fill="#f88f1f" />
  <path d="M711.37,398.1h-14.6a1.1053,1.1053,0,0,0,0,2.21h14.6a1.10511,1.10511,0,0,0,0-2.21Z"
    transform="translate(-311 -161)" fill="#f88f1f" />
  <rect x="171.31411" y="270.27328" width="11.00609" height="5.75992" rx="2.87996" fill="#e6e6e6" />
  <rect x="231.31411" y="270.27328" width="11.00609" height="5.75992" rx="2.87996" fill="#e6e6e6" />
  <rect x="248.31411" y="270.27328" width="11.00609" height="5.75992" rx="2.87996" fill="#e6e6e6" />
  <rect x="187.6343" y="269.79312" width="38.3657" height="5.75992" rx="2.87996" fill="#e6e6e6" />
  <rect x="267.6343" y="269.79312" width="38.3657" height="5.75992" rx="2.87996" fill="#e6e6e6" />
  <rect x="187.31411" y="283.27328" width="11.00609" height="5.75992" rx="2.87996" fill="#e6e6e6" />
  <rect x="247.31411" y="283.27328" width="11.00609" height="5.75992" rx="2.87996" fill="#e6e6e6" />
  <rect x="264.31411" y="283.27328" width="11.00609" height="5.75992" rx="2.87996" fill="#e6e6e6" />
  <rect x="203.6343" y="282.79312" width="38.3657" height="5.75992" rx="2.87996" fill="#e6e6e6" />
  <rect x="283.6343" y="282.79312" width="38.3657" height="5.75992" rx="2.87996" fill="#e6e6e6" />
  <rect x="203.31411" y="296.27328" width="11.00609" height="5.75992" rx="2.87996" fill="#e6e6e6" />
  <rect x="263.31411" y="296.27328" width="11.00609" height="5.75992" rx="2.87996" fill="#e6e6e6" />
  <rect x="280.31411" y="296.27328" width="11.00609" height="5.75992" rx="2.87996" fill="#e6e6e6" />
  <rect x="219.6343" y="295.79312" width="38.3657" height="5.75992" rx="2.87996" fill="#e6e6e6" />
  <rect x="299.6343" y="295.79312" width="38.3657" height="5.75992" rx="2.87996" fill="#e6e6e6" />
  <rect x="219.31411" y="309.27328" width="11.00609" height="5.75992" rx="2.87996" fill="#e6e6e6" />
  <rect x="279.31411" y="309.27328" width="11.00609" height="5.75992" rx="2.87996" fill="#e6e6e6" />
  <rect x="296.31411" y="309.27328" width="11.00609" height="5.75992" rx="2.87996" fill="#e6e6e6" />
  <rect x="235.6343" y="308.79312" width="38.3657" height="5.75992" rx="2.87996" fill="#e6e6e6" />
  <rect x="231.31411" y="360.9668" width="11.00609" height="5.75992" rx="2.87996" fill="#e6e6e6" />
  <rect x="248.31411" y="360.9668" width="11.00609" height="5.75992" rx="2.87996" fill="#e6e6e6" />
  <rect x="267.6343" y="361.44697" width="38.3657" height="5.75992" rx="2.87996" fill="#e6e6e6" />
  <rect x="171.31411" y="360.9668" width="11.00609" height="5.75992" rx="2.87996" fill="#e6e6e6" />
  <rect x="187.6343" y="361.44697" width="38.3657" height="5.75992" rx="2.87996" fill="#e6e6e6" />
  <rect x="187.31411" y="347.9668" width="11.00609" height="5.75992" rx="2.87996" fill="#e6e6e6" />
  <rect x="247.31411" y="347.9668" width="11.00609" height="5.75992" rx="2.87996" fill="#e6e6e6" />
  <rect x="264.31411" y="347.9668" width="11.00609" height="5.75992" rx="2.87996" fill="#e6e6e6" />
  <rect x="203.6343" y="348.44697" width="38.3657" height="5.75992" rx="2.87996" fill="#e6e6e6" />
  <rect x="203.31411" y="334.9668" width="11.00609" height="5.75992" rx="2.87996" fill="#e6e6e6" />
  <rect x="263.31411" y="334.9668" width="11.00609" height="5.75992" rx="2.87996" fill="#e6e6e6" />
  <rect x="280.31411" y="334.9668" width="11.00609" height="5.75992" rx="2.87996" fill="#e6e6e6" />
  <rect x="219.6343" y="335.44697" width="38.3657" height="5.75992" rx="2.87996" fill="#e6e6e6" />
  <rect x="219.31411" y="321.9668" width="11.00609" height="5.75992" rx="2.87996" fill="#e6e6e6" />
  <rect x="279.31411" y="321.9668" width="11.00609" height="5.75992" rx="2.87996" fill="#e6e6e6" />
  <rect x="296.31411" y="321.9668" width="11.00609" height="5.75992" rx="2.87996" fill="#e6e6e6" />
  <rect x="235.6343" y="322.44697" width="38.3657" height="5.75992" rx="2.87996" fill="#e6e6e6" />

</svg>
